# xmcd
#
# Track frame offsets: 
#        150
#        21649
#        43888
#        61728
#
# Disc length: 1064 seconds
#
# Revision: 0
# Processed by: cddbd v1.5.2PL0 Copyright (c) Steve Scherf et al.
# Submitted via: ExactAudioCopyFreeDBPlugin 1.0
#
DISCID=33042604
DTITLE=Katrine Schmidt - Taking My Time (EP)
DYEAR=2017
DGENRE=Americana/country/folk
TTITLE0=Wash My Soul
TTITLE1=Taking My Time
TTITLE2=Gone
TTITLE3=Rose Of My Heart
EXTD=
EXTT0=
EXTT1=
EXTT2=
EXTT3=
PLAYORDER=
